<svg height="11" viewBox="0 0 22 11" width="22" xmlns="http://www.w3.org/2000/svg" xmlns:xlink="http://www.w3.org/1999/xlink"><title/><defs><path d="M.577 0C.257 0 0 .222 0 .5c0 .276.262.5.577.5h20.846c.32 0 .577-.222.577-.5 0-.276-.262-.5-.577-.5H.577zm0 5C.257 5 0 5.222 0 5.5c0 .276.262.5.577.5h20.846c.32 0 .577-.222.577-.5 0-.276-.262-.5-.577-.5H.577zm0 5c-.32 0-.577.222-.577.5 0 .276.262.5.577.5h20.846c.32 0 .577-.222.577-.5 0-.276-.262-.5-.577-.5H.577z" id="a"/></defs><g fill="none" fill-rule="evenodd"><use fill="#000" xlink:href="#a"/><use xlink:href="#a"/></g></svg>