<svg xmlns="http://www.w3.org/2000/svg" width="164" height="56" viewBox="0 0 164 56"><path fill="#B6B6B6" d="M15 4.13h-2.856c-.338 0-.715.443-.715 1.038V7.23H15v2.94h-3.57V19H8.056v-8.83H5V7.23h3.057V5.5c0-2.48 1.722-4.5 4.086-4.5H15v3.13z"/><path fill="#FF5722" d="M15 31.13h-2.856c-.338 0-.715.442-.715 1.038v2.063H15v2.94h-3.57V46H8.056v-8.83H5v-2.94h3.057V32.5c0-2.48 1.722-4.5 4.086-4.5H15v3.13z"/><path fill="#B6B6B6" d="M55.2 4.293c-.678.3-1.405.503-2.17.595.78-.467 1.38-1.207 1.66-2.088-.728.432-1.536.747-2.395.916-.69-.734-1.67-1.192-2.756-1.192-2.086 0-3.776 1.69-3.776 3.774 0 .296.033.584.098.86-3.137-.157-5.92-1.66-7.78-3.944-.326.557-.513 1.206-.513 1.898 0 1.31.666 2.465 1.68 3.142-.62-.02-1.202-.19-1.71-.472v.047c0 1.828 1.3 3.353 3.027 3.7-.316.087-.65.133-.995.133-.243 0-.48-.023-.71-.067.48 1.5 1.875 2.59 3.526 2.62-1.292 1.014-2.92 1.617-4.688 1.617-.305 0-.605-.018-.9-.053 1.67 1.07 3.654 1.696 5.787 1.696 6.943 0 10.74-5.752 10.74-10.74 0-.164-.003-.327-.01-.49.737-.53 1.376-1.196 1.883-1.953z"/><path fill="#FF5722" d="M55.2 31.293c-.678.3-1.405.503-2.17.596.78-.47 1.38-1.208 1.66-2.09-.728.433-1.536.747-2.395.916-.69-.733-1.67-1.192-2.756-1.192-2.086 0-3.776 1.69-3.776 3.774 0 .296.033.584.098.86-3.137-.157-5.92-1.66-7.78-3.944-.326.558-.513 1.206-.513 1.897 0 1.312.666 2.467 1.68 3.144-.62-.02-1.202-.19-1.71-.473v.05c0 1.828 1.3 3.353 3.027 3.7-.316.087-.65.133-.995.133-.243 0-.48-.022-.71-.067.48 1.5 1.875 2.592 3.526 2.62-1.292 1.014-2.92 1.617-4.688 1.617-.305 0-.605-.02-.9-.054 1.67 1.07 3.654 1.696 5.787 1.696 6.943 0 10.74-5.752 10.74-10.742 0-.162-.003-.325-.01-.487.737-.532 1.376-1.197 1.883-1.954z"/><path fill="#B6B6B6" d="M77.076 3.05c0 1.063-.785 1.924-2.076 1.924-1.215 0-2-.86-2-1.924 0-1.088.81-1.924 2.05-1.924 1.24 0 2 .836 2.026 1.924zm-3.974 15.824V6.494h3.848v12.38h-3.848zm6.15-8.43c0-1.545-.05-2.836-.1-3.95h3.34l.18 1.722h.075c.506-.81 1.747-2 3.823-2 2.53 0 4.43 1.696 4.43 5.342v7.317h-3.848v-6.86c0-1.596-.56-2.685-1.95-2.685-1.063 0-1.695.734-1.974 1.443-.103.253-.127.607-.127.962v7.14h-3.847v-8.432z"/><path fill="#FF5722" d="M77.076 30.05c0 1.062-.785 1.924-2.076 1.924-1.215 0-2-.86-2-1.925 0-1.09.81-1.924 2.05-1.924 1.24 0 2 .835 2.026 1.923zm-3.974 15.823v-12.38h3.848v12.38h-3.848zm6.15-8.43c0-1.545-.05-2.836-.1-3.95h3.34l.18 1.722h.075c.506-.81 1.747-2 3.823-2 2.53 0 4.43 1.697 4.43 5.343v7.317h-3.848v-6.86c0-1.597-.56-2.685-1.95-2.685-1.063 0-1.695.733-1.974 1.442-.103.253-.127.606-.127.962v7.14h-3.847v-8.432z"/><path fill="#B6B6B6" d="M115.874 12.577c-.42.376-1.224 1.13-2.563 1.13-1.58 0-3.103-1.386-3.103-3.603 0-2.84 1.82-3.757 3.218-3.757 2.016 0 2.458 1.216 3.008 2.902l.732 2.31c.732 2.238 2.107 4.04 6.07 4.04 2.842 0 4.766-.878 4.766-3.187 0-1.87-1.054-2.84-3.022-3.303l-1.468-.322c-1.008-.23-1.306-.646-1.306-1.34 0-.785.618-1.247 1.626-1.247 1.1 0 1.695.417 1.787 1.41l2.29-.277c-.182-2.078-1.602-2.933-3.94-2.933-2.06 0-4.076.785-4.076 3.302 0 1.57.757 2.563 2.657 3.025l1.56.37c1.167.276 1.558.762 1.558 1.432 0 .853-.825 1.2-2.383 1.2-2.313 0-3.477-1.225-4.025-2.91l-.757-2.31c-.963-3-2.1-4.11-5.146-4.11-2.715 0-5.354 2.148-5.354 5.796 0 3.51 2.532 5.404 5.193 5.404 1.926 0 2.902-.676 3.38-1.023l-.7-2z"/><path fill="#FF5722" d="M115.874 39.578c-.42.375-1.224 1.13-2.563 1.13-1.58 0-3.103-1.387-3.103-3.604 0-2.84 1.82-3.757 3.218-3.757 2.016 0 2.458 1.216 3.008 2.902l.732 2.31c.732 2.238 2.107 4.04 6.07 4.04 2.842 0 4.766-.878 4.766-3.187 0-1.87-1.054-2.842-3.022-3.304l-1.467-.322c-1.007-.23-1.305-.646-1.305-1.34 0-.785.618-1.248 1.626-1.248 1.1 0 1.696.416 1.788 1.41l2.29-.277c-.183-2.078-1.603-2.934-3.94-2.934-2.06 0-4.076.784-4.076 3.302 0 1.57.756 2.563 2.656 3.024l1.56.37c1.167.275 1.558.762 1.558 1.432 0 .854-.825 1.2-2.383 1.2-2.313 0-3.477-1.224-4.025-2.91l-.757-2.31c-.963-2.998-2.1-4.108-5.146-4.108-2.715 0-5.354 2.15-5.354 5.796 0 3.51 2.532 5.404 5.193 5.404 1.926 0 2.902-.677 3.38-1.022l-.7-2z"/><path fill="#B6B6B6" d="M152.07 9.302s1.894-.147 1.894-2.46-1.55-3.442-3.51-3.442H144v12.926h6.454s3.938.13 3.938-3.814c.003 0 .172-3.21-2.322-3.21zm-5.226-3.605h3.61s.877 0 .877 1.345-.516 1.54-1.102 1.54h-3.384V5.697zm3.427 8.332h-3.426v-3.456h3.61s1.308-.018 1.308 1.775c0 1.51-.977 1.668-1.49 1.68zm9.378-7.34c-4.77 0-4.767 4.964-4.767 4.964s-.326 4.94 4.768 4.94c0 0 4.244.255 4.244-3.437h-2.182s.072 1.39-1.99 1.39c0 0-2.182.153-2.182-2.247h6.427s.704-5.61-4.317-5.61zm1.94 3.885h-4.072s.267-1.993 2.183-1.993c1.91 0 1.89 1.993 1.89 1.993zm.51-6.414h-5.118v1.593h5.117V4.16z"/><path fill="#FF5722" d="M152.07 36.303s1.894-.147 1.894-2.46c0-2.314-1.55-3.442-3.51-3.442H144v12.927h6.454s3.938.13 3.938-3.813c.003 0 .172-3.21-2.322-3.21zm-5.226-3.606h3.61s.877 0 .877 1.346c0 1.345-.516 1.54-1.102 1.54h-3.384v-2.886zm3.427 8.332h-3.426v-3.456h3.61s1.308-.018 1.308 1.775c0 1.51-.977 1.67-1.49 1.68zm9.378-7.34c-4.77 0-4.767 4.964-4.767 4.964s-.326 4.94 4.768 4.94c0 0 4.244.255 4.244-3.437h-2.182s.072 1.392-1.99 1.392c0 0-2.182.15-2.182-2.25h6.427c0 .002.704-5.61-4.317-5.61zm1.94 3.886h-4.072s.267-1.994 2.183-1.994c1.91 0 1.89 1.994 1.89 1.994zm.51-6.414h-5.118v1.592h5.117v-1.592z"/></svg>