<?xml version="1.0" encoding="utf-8"?>
<!-- Generator: Adobe Illustrator 16.0.0, SVG Export Plug-In . SVG Version: 6.00 Build 0)  -->
<!DOCTYPE svg PUBLIC "-//W3C//DTD SVG 1.1//EN" "http://www.w3.org/Graphics/SVG/1.1/DTD/svg11.dtd">
<svg version="1.1" id="Layer_1" xmlns="http://www.w3.org/2000/svg" xmlns:xlink="http://www.w3.org/1999/xlink" x="0px" y="0px"
	 width="164px" height="56px" viewBox="0 0 164 56" enable-background="new 0 0 164 56" xml:space="preserve">
<g transform="translate(0 0)">
	<path d="M15,4.129h-2.856c-0.338,0-0.715,0.444-0.715,1.039V7.23H15v2.94h-3.571V19H8.057v-8.829H5V7.23h3.057V5.5
		c0-2.481,1.722-4.5,4.086-4.5H15V4.129z"/>
</g>
<g transform="translate(0 0)">
	<path fill="#FF5722" d="M15,31.129h-2.856c-0.338,0-0.715,0.443-0.715,1.039v2.063H15v2.939h-3.571V46H8.057v-8.829H5v-2.94h3.057
		V32.5c0-2.48,1.722-4.5,4.086-4.5H15V31.129z"/>
</g>
<g transform="translate(36 0)">
	<path d="M19.2,4.293c-0.678,0.301-1.405,0.503-2.169,0.595c0.78-0.467,1.379-1.207,1.66-2.088
		c-0.729,0.432-1.537,0.747-2.396,0.916c-0.689-0.734-1.67-1.192-2.756-1.192c-2.085,0-3.775,1.69-3.775,3.774
		c0,0.296,0.033,0.584,0.098,0.86c-3.137-0.157-5.919-1.66-7.78-3.944C1.756,3.771,1.569,4.42,1.569,5.112
		c0,1.31,0.667,2.465,1.68,3.142c-0.619-0.02-1.201-0.189-1.71-0.472c0,0.016,0,0.031,0,0.047c0,1.829,1.302,3.354,3.028,3.702
		c-0.316,0.086-0.65,0.132-0.995,0.132c-0.243,0-0.479-0.023-0.71-0.067c0.48,1.5,1.875,2.591,3.526,2.621
		C5.096,15.23,3.469,15.833,1.7,15.833c-0.305,0-0.605-0.018-0.9-0.053c1.67,1.071,3.654,1.696,5.787,1.696
		c6.943,0,10.74-5.752,10.74-10.741c0-0.163-0.003-0.326-0.011-0.488C18.054,5.715,18.693,5.05,19.2,4.293z"/>
</g>
<g transform="translate(36 0)">
	<path fill="#FF5722" d="M19.2,31.293c-0.678,0.301-1.405,0.503-2.169,0.596c0.78-0.468,1.379-1.207,1.66-2.089
		c-0.729,0.433-1.537,0.747-2.396,0.916c-0.689-0.733-1.67-1.192-2.756-1.192c-2.085,0-3.775,1.69-3.775,3.774
		c0,0.296,0.033,0.584,0.098,0.86c-3.137-0.157-5.919-1.66-7.78-3.944c-0.326,0.558-0.513,1.206-0.513,1.897
		c0,1.311,0.667,2.466,1.68,3.143c-0.619-0.02-1.201-0.189-1.71-0.473c0,0.017,0,0.031,0,0.048c0,1.829,1.302,3.354,3.028,3.702
		c-0.316,0.086-0.65,0.132-0.995,0.132c-0.243,0-0.479-0.022-0.71-0.067c0.48,1.5,1.875,2.592,3.526,2.621
		C5.096,42.23,3.469,42.833,1.7,42.833c-0.305,0-0.605-0.019-0.9-0.054c1.67,1.072,3.654,1.697,5.787,1.697
		c6.943,0,10.74-5.752,10.74-10.742c0-0.162-0.003-0.325-0.011-0.487C18.054,32.715,18.693,32.05,19.2,31.293z"/>
</g>
<g transform="translate(72 0)">
	<path d="M5.076,3.05c0,1.063-0.785,1.924-2.076,1.924c-1.215,0-2-0.861-2-1.924c0-1.088,0.811-1.924,2.051-1.924
		C4.291,1.126,5.051,1.962,5.076,3.05z M1.102,18.874V6.494H4.95v12.38H1.102z M7.253,10.443c0-1.544-0.051-2.835-0.102-3.949h3.342
		l0.178,1.722h0.076c0.506-0.811,1.747-2,3.823-2c2.531,0,4.43,1.696,4.43,5.342v7.317h-3.848v-6.861
		c0-1.595-0.559-2.684-1.95-2.684c-1.063,0-1.695,0.734-1.974,1.443c-0.103,0.253-0.127,0.607-0.127,0.962v7.14H7.253V10.443z"/>
</g>
<g transform="translate(72 0)">
	<path fill="#FF5722" d="M5.076,30.049c0,1.063-0.785,1.925-2.076,1.925c-1.215,0-2-0.861-2-1.925c0-1.088,0.811-1.923,2.051-1.923
		C4.291,28.125,5.051,28.961,5.076,30.049z M1.102,45.873V33.494H4.95v12.379H1.102z M7.253,37.442c0-1.544-0.051-2.835-0.102-3.948
		h3.342l0.178,1.721h0.076c0.506-0.811,1.747-2,3.823-2c2.531,0,4.43,1.697,4.43,5.343v7.317h-3.848v-6.861
		c0-1.596-0.559-2.684-1.95-2.684c-1.063,0-1.695,0.733-1.974,1.442c-0.103,0.253-0.127,0.606-0.127,0.962v7.141H7.253V37.442z"/>
</g>
<g transform="translate(108 0)">
	<path d="M7.874,12.577c-0.419,0.376-1.224,1.13-2.563,1.13c-1.582,0-3.104-1.386-3.104-3.603c0-2.841,1.819-3.757,3.218-3.757
		c2.016,0,2.458,1.216,3.008,2.902l0.732,2.31c0.732,2.239,2.107,4.04,6.07,4.04c2.842,0,4.766-0.877,4.766-3.186
		c0-1.871-1.055-2.841-3.023-3.303L15.51,8.788c-1.008-0.231-1.306-0.646-1.306-1.34c0-0.785,0.618-1.247,1.626-1.247
		c1.1,0,1.695,0.416,1.787,1.409l2.291-0.277C19.725,5.255,18.305,4.4,15.968,4.4c-2.062,0-4.077,0.785-4.077,3.302
		c0,1.57,0.756,2.563,2.656,3.025l1.559,0.369c1.168,0.277,1.559,0.763,1.559,1.433c0,0.854-0.825,1.2-2.383,1.2
		c-2.313,0-3.477-1.224-4.025-2.909l-0.757-2.31C9.537,5.509,8.4,4.4,5.354,4.4C2.639,4.4,0,6.548,0,10.196
		C0,13.707,2.532,15.6,5.193,15.6c1.926,0,2.902-0.676,3.381-1.023L7.874,12.577L7.874,12.577z"/>
</g>
<g transform="translate(108 0)">
	<path fill="#FF5722" d="M7.874,39.578c-0.419,0.375-1.224,1.129-2.563,1.129c-1.582,0-3.104-1.386-3.104-3.603
		c0-2.841,1.819-3.757,3.218-3.757c2.016,0,2.458,1.216,3.008,2.902l0.732,2.31c0.732,2.239,2.107,4.04,6.07,4.04
		c2.842,0,4.766-0.877,4.766-3.186c0-1.871-1.055-2.842-3.023-3.304l-1.467-0.321c-1.008-0.231-1.306-0.646-1.306-1.341
		c0-0.784,0.618-1.247,1.626-1.247c1.1,0,1.695,0.416,1.787,1.409l2.291-0.276c-0.184-2.078-1.604-2.934-3.94-2.934
		c-2.062,0-4.077,0.785-4.077,3.303c0,1.569,0.756,2.563,2.656,3.024l1.559,0.369c1.168,0.276,1.559,0.763,1.559,1.433
		c0,0.854-0.825,1.2-2.383,1.2c-2.313,0-3.477-1.224-4.025-2.909l-0.757-2.31C9.537,32.51,8.4,31.4,5.354,31.4
		C2.639,31.4,0,33.549,0,37.196c0,3.511,2.532,5.404,5.193,5.404c1.926,0,2.902-0.677,3.381-1.022L7.874,39.578L7.874,39.578z"/>
</g>
<g transform="translate(144 0)">
	<path d="M8.07,9.302c0,0,1.894-0.147,1.894-2.46S8.415,3.4,6.454,3.4H0v12.926h6.454c0,0,3.938,0.129,3.938-3.814
		C10.395,12.512,10.564,9.302,8.07,9.302z M2.844,5.697h3.61c0,0,0.877,0,0.877,1.345s-0.517,1.54-1.103,1.54H2.844V5.697z
		 M6.271,14.029H2.844v-3.455h3.61c0,0,1.308-0.018,1.308,1.775C7.762,13.861,6.785,14.018,6.271,14.029z M15.648,6.689
		c-4.771,0-4.767,4.965-4.767,4.965s-0.327,4.941,4.767,4.941c0,0,4.244,0.254,4.244-3.438H17.71c0,0,0.072,1.391-1.989,1.391
		c0,0-2.183,0.152-2.183-2.248h6.427C19.966,12.301,20.669,6.689,15.648,6.689z M17.589,10.575h-4.073c0,0,0.267-1.993,2.183-1.993
		C17.611,8.582,17.589,10.575,17.589,10.575z M18.098,4.161H12.98v1.592h5.117V4.161L18.098,4.161z"/>
</g>
<g transform="translate(144 0)">
	<path fill="#FF5722" d="M8.07,36.303c0,0,1.894-0.147,1.894-2.461c0-2.313-1.549-3.441-3.51-3.441H0v12.926h6.454
		c0,0,3.938,0.129,3.938-3.813C10.395,39.513,10.564,36.303,8.07,36.303z M2.844,32.697h3.61c0,0,0.877,0,0.877,1.346
		c0,1.345-0.517,1.539-1.103,1.539H2.844V32.697z M6.271,41.029H2.844v-3.455h3.61c0,0,1.308-0.018,1.308,1.775
		C7.762,40.861,6.785,41.019,6.271,41.029z M15.648,33.689c-4.771,0-4.767,4.965-4.767,4.965s-0.327,4.941,4.767,4.941
		c0,0,4.244,0.254,4.244-3.438H17.71c0,0,0.072,1.392-1.989,1.392c0,0-2.183,0.152-2.183-2.248h6.427
		C19.966,39.302,20.669,33.689,15.648,33.689z M17.589,37.576h-4.073c0,0,0.267-1.994,2.183-1.994
		C17.611,35.582,17.589,37.576,17.589,37.576z M18.098,31.162H12.98v1.592h5.117V31.162L18.098,31.162z"/>
</g>
</svg>
