<svg xmlns="http://www.w3.org/2000/svg" width="200" height="56" viewBox="0 0 200 56"><path fill="#B6B6B6" d="M12.592 8.63H9.736c-.338 0-.715.443-.715 1.038v2.062h3.573v2.94h-3.57v8.83H5.648v-8.83H2.59v-2.94h3.06V10c0-2.48 1.72-4.5 4.085-4.5h2.857v3.13z"/><path fill="#FF5722" d="M12.592 35.63H9.736c-.338 0-.715.442-.715 1.038v2.063h3.573v2.94h-3.57v8.83H5.648v-8.83H2.59v-2.94h3.06V37c0-2.48 1.72-4.5 4.085-4.5h2.857v3.13z"/><path fill="#B6B6B6" d="M52.792 8.793c-.678.3-1.405.503-2.17.595.78-.467 1.38-1.207 1.66-2.088-.728.432-1.536.747-2.395.916-.69-.734-1.67-1.192-2.756-1.192-2.083 0-3.773 1.69-3.773 3.774 0 .296.033.584.098.86-3.137-.157-5.92-1.66-7.78-3.944-.326.557-.513 1.206-.513 1.898 0 1.31.668 2.465 1.68 3.142-.618-.02-1.2-.19-1.71-.472v.047c0 1.827 1.303 3.352 3.03 3.7-.317.086-.65.132-.996.132-.243 0-.48-.023-.71-.067.48 1.5 1.875 2.59 3.526 2.62-1.292 1.014-2.92 1.617-4.688 1.617-.305 0-.605-.018-.9-.053 1.67 1.07 3.654 1.695 5.787 1.695 6.943 0 10.74-5.752 10.74-10.74 0-.164-.003-.327-.01-.49.737-.53 1.376-1.196 1.883-1.953z"/><path fill="#FF5722" d="M52.792 35.793c-.678.3-1.405.503-2.17.596.78-.47 1.38-1.21 1.66-2.09-.728.432-1.536.746-2.395.915-.69-.733-1.67-1.192-2.756-1.192-2.083 0-3.773 1.69-3.773 3.774 0 .296.033.584.098.86-3.137-.157-5.92-1.66-7.78-3.944-.326.558-.513 1.206-.513 1.897 0 1.312.668 2.467 1.68 3.144-.618-.02-1.2-.19-1.71-.473v.05c0 1.83 1.303 3.354 3.03 3.7-.317.088-.65.134-.996.134-.243 0-.48-.022-.71-.067.48 1.5 1.875 2.592 3.526 2.62-1.292 1.015-2.92 1.617-4.688 1.617-.305 0-.605-.02-.9-.054 1.67 1.07 3.654 1.696 5.787 1.696 6.943 0 10.74-5.752 10.74-10.742 0-.162-.003-.325-.01-.487.737-.532 1.376-1.197 1.883-1.954z"/><path fill="#B6B6B6" d="M74.668 7.55c0 1.063-.785 1.924-2.076 1.924-1.215 0-2-.86-2-1.924 0-1.088.81-1.924 2.05-1.924 1.24 0 2 .836 2.026 1.924zm-3.974 15.824v-12.38h3.848v12.38h-3.848zm6.15-8.43c0-1.545-.05-2.836-.1-3.95h3.34l.18 1.722h.075c.504-.81 1.745-2 3.82-2 2.53 0 4.43 1.696 4.43 5.342v7.317h-3.847v-6.86c0-1.596-.56-2.685-1.95-2.685-1.063 0-1.695.734-1.974 1.443-.105.253-.128.607-.128.962v7.14h-3.848v-8.432z"/><path fill="#FF5722" d="M74.668 34.55c0 1.062-.785 1.925-2.076 1.925-1.215 0-2-.86-2-1.926 0-1.09.81-1.925 2.05-1.925 1.24 0 2 .835 2.026 1.923zm-3.974 15.823v-12.38h3.848v12.38h-3.848zm6.15-8.432c0-1.54-.05-2.832-.1-3.945h3.34l.18 1.72h.075c.504-.81 1.745-2 3.82-2 2.53 0 4.43 1.698 4.43 5.345v7.315h-3.847v-6.86c0-1.597-.56-2.685-1.95-2.685-1.063 0-1.695.732-1.974 1.44-.105.255-.128.607-.128.964v7.14h-3.848V41.94z"/><path fill="#B6B6B6" d="M113.466 17.077c-.42.376-1.224 1.13-2.563 1.13-1.582 0-3.104-1.386-3.104-3.603 0-2.84 1.816-3.757 3.216-3.757 2.017 0 2.458 1.216 3.01 2.902l.73 2.31c.73 2.237 2.106 4.04 6.07 4.04 2.842 0 4.766-.88 4.766-3.188 0-1.87-1.056-2.84-3.022-3.303l-1.468-.323c-1.008-.23-1.306-.646-1.306-1.34 0-.785.618-1.247 1.626-1.247 1.1 0 1.695.417 1.787 1.41l2.29-.277c-.185-2.078-1.605-2.933-3.94-2.933-2.063 0-4.078.785-4.078 3.302 0 1.57.756 2.563 2.656 3.025l1.558.37c1.168.276 1.56.762 1.56 1.432 0 .852-.825 1.2-2.383 1.2-2.313 0-3.478-1.226-4.025-2.91l-.757-2.31c-.962-3-2.1-4.11-5.145-4.11-2.715 0-5.354 2.147-5.354 5.795 0 3.51 2.533 5.404 5.194 5.404 1.926 0 2.902-.677 3.38-1.024l-.7-2z"/><path fill="#FF5722" d="M113.466 44.078c-.42.375-1.224 1.13-2.563 1.13-1.582 0-3.104-1.388-3.104-3.605 0-2.84 1.816-3.756 3.216-3.756 2.017 0 2.458 1.215 3.01 2.9l.73 2.31c.73 2.24 2.106 4.042 6.07 4.042 2.842 0 4.766-.88 4.766-3.19 0-1.87-1.056-2.842-3.022-3.303l-1.466-.32c-1.01-.232-1.307-.647-1.307-1.342 0-.784.618-1.247 1.626-1.247 1.1 0 1.694.415 1.787 1.408l2.29-.276c-.184-2.078-1.603-2.935-3.94-2.935-2.06 0-4.075.785-4.075 3.304 0 1.57.756 2.563 2.655 3.024l1.56.37c1.168.274 1.56.76 1.56 1.43 0 .855-.826 1.202-2.384 1.202-2.313 0-3.477-1.225-4.025-2.91l-.755-2.31c-.965-2.997-2.102-4.107-5.15-4.107-2.714 0-5.353 2.147-5.353 5.794 0 3.512 2.533 5.404 5.194 5.404 1.926 0 2.902-.678 3.38-1.022l-.698-2z"/><path fill="#B6B6B6" d="M149.662 13.802s1.894-.147 1.894-2.46-1.55-3.442-3.51-3.442h-6.454v12.926h6.454s3.938.13 3.938-3.814c.002 0 .172-3.21-2.322-3.21zm-5.226-3.605h3.61s.877 0 .877 1.345-.517 1.54-1.103 1.54h-3.384v-2.885zm3.427 8.332h-3.427v-3.457h3.61s1.308-.018 1.308 1.775c0 1.51-.977 1.668-1.49 1.68zm9.377-7.34c-4.77 0-4.768 4.963-4.768 4.963s-.326 4.94 4.768 4.94c0 0 4.244.255 4.244-3.437H159.3s.073 1.39-1.988 1.39c0 0-2.183.153-2.183-2.247h6.425c.002 0 .705-5.61-4.316-5.61zm1.94 3.884h-4.072s.268-1.993 2.184-1.993c1.91 0 1.89 1.994 1.89 1.994zm.51-6.414h-5.118v1.593h5.117V8.66z"/><path fill="#FF5722" d="M149.662 40.803s1.894-.146 1.894-2.46-1.55-3.442-3.51-3.442h-6.454v12.93h6.454s3.938.13 3.938-3.813c.002 0 .172-3.212-2.322-3.212zm-5.226-3.606h3.61s.877 0 .877 1.346-.517 1.54-1.103 1.54h-3.384v-2.886zm3.427 8.332h-3.427v-3.457h3.61s1.308-.018 1.308 1.775c0 1.51-.977 1.67-1.49 1.68zm9.377-7.34c-4.77 0-4.768 4.963-4.768 4.963s-.326 4.94 4.768 4.94c0 0 4.244.255 4.244-3.438H159.3s.073 1.393-1.988 1.393c0 0-2.183.15-2.183-2.25h6.425c.002.003.705-5.61-4.316-5.61zm1.94 3.885h-4.072s.268-1.994 2.184-1.994c1.91 0 1.89 1.995 1.89 1.995zm.51-6.414h-5.118v1.593h5.117V35.66z"/><path fill="#B6B6B6" d="M185.322 15.246c-1.422 0-8.745-6.045-8.745-6.045V8.54c0-.823.652-1.49 1.457-1.49h14.575c.804 0 1.456.667 1.456 1.49l-.01.746s-7.245 5.963-8.735 5.963zm0 2.05c1.558 0 8.734-5.777 8.734-5.777l.01 8.944c0 .823-.65 1.49-1.457 1.49h-14.577c-.804 0-1.457-.667-1.457-1.49l.012-8.946s7.31 5.776 8.732 5.776z"/><path fill="#FF5722" d="M185.322 42.244c-1.422 0-8.745-6.044-8.745-6.044v-.666c0-.822.652-1.49 1.457-1.49h14.575c.804 0 1.456.668 1.456 1.49l-.01.747s-7.245 5.965-8.735 5.965zm0 2.05c1.558 0 8.734-5.776 8.734-5.776l.01 8.946c0 .823-.65 1.49-1.457 1.49h-14.577c-.804 0-1.457-.667-1.457-1.49l.012-8.946s7.31 5.777 8.732 5.777z"/></svg>